<!-- You can do your sprite here: https://icomoon.io/app/#/select -->
<svg aria-hidden="true" xmlns="http://www.w3.org/2000/svg">
  <defs>
    <symbol id="security" viewBox="0 0 24 24">
      <path d="M20.995 6.903a.9975.9975 0 0 0-.547-.797l-7.973-4c-.281-.143-.613-.142-.895-.002l-8.027 4c-.297.15-.502.437-.544.767-.013.097-1.145 9.741 8.541 15.008.148.081.313.121.477.121.17 0 .34-.043.492-.13 9.307-5.259 8.514-14.573 8.476-14.967zm-8.977 12.944c-6.86-4.01-7.14-10.352-7.063-12.205l7.071-3.523 6.998 3.511c.005 1.87-.481 8.243-7.006 12.217z"/>
    </symbol>
    <symbol id="dashboard" viewBox="0 0 24 24">
      <path d="M12 4C6.486 4 2 8.486 2 14c0 1.55.354 3.045 1.051 4.445.17.34.516.555.895.555h16.107c.379 0 .726-.215.896-.555C21.646 17.045 22 15.55 22 14c0-5.514-4.486-10-10-10zm7.41 13H4.59A7.875 7.875 0 0 1 4 14c0-4.411 3.589-8 8-8s8 3.589 8 8a7.875 7.875 0 0 1-.59 3z"/>
      <path d="M10.939 12.939c-.168.111-.323.262-.44.44-.465.708-.268 1.657.44 2.121.707.465 1.657.268 2.121-.44l3.962-6.038a.0338.0338 0 0 0 0-.035.0335.0335 0 0 0-.045-.01l-6.038 3.962z"/>
    </symbol>
    <symbol id="reports" viewBox="0 0 24 24">
      <path d="M19 20V10c0-.552-.448-1-1-1s-1 .448-1 1v10c0 .552.448 1 1 1s1-.448 1-1zm-6 0V4c0-.552-.448-1-1-1s-1 .448-1 1v16c0 .552.448 1 1 1s1-.448 1-1zm-6 0v-6c0-.552-.448-1-1-1s-1 .448-1 1v6c0 .552.448 1 1 1s1-.448 1-1z"/>
    </symbol>
    <symbol id="menu" viewBox="0 0 24 24">
      <path d="M3 13h18c.552 0 1-.448 1-1s-.448-1-1-1H3c-.552 0-1 .448-1 1s.448 1 1 1zm0-6h18c.552 0 1-.448 1-1s-.448-1-1-1H3c-.552 0-1 .448-1 1s.448 1 1 1zm0 12h18c.552 0 1-.448 1-1s-.448-1-1-1H3c-.552 0-1 .448-1 1s.448 1 1 1z"/>
    </symbol>
  </defs>
</svg>
