<!-- You can do your sprite here: https://icomoon.io/app/#/select -->
<svg aria-hidden="true" xmlns="http://www.w3.org/2000/svg">
  <defs>
     <symbol id="menu" viewBox="0 0 24 24">
      <path d="M4 6h16v2H4zm4 5h12v2H8zm5 5h7v2h-7z"/>
    </symbol>
    <symbol id="reports" viewBox="0 0 24 24">
      <path d="M6 21H3c-.553 0-1-.448-1-1v-8c0-.552.447-1 1-1h3c.553 0 1 .448 1 1v8c0 .552-.447 1-1 1zm7 0h-3c-.553 0-1-.448-1-1V3c0-.552.447-1 1-1h3c.553 0 1 .448 1 1v17c0 .552-.447 1-1 1zm7 0h-3c-.553 0-1-.448-1-1V9c0-.552.447-1 1-1h3c.553 0 1 .448 1 1v11c0 .552-.447 1-1 1z"/>
    </symbol>
    <symbol id="security" viewBox="0 0 24 24">
      <path d="M20.496 6.106l-7.973-4c-.281-.143-.613-.142-.895-.002l-8.027 4c-.297.15-.502.437-.544.767-.013.097-1.145 9.741 8.541 15.008.148.081.313.121.477.121.17 0 .34-.043.492-.13 9.307-5.259 8.514-14.573 8.476-14.967a1.0005 1.0005 0 0 0-.547-.797z"/>
    </symbol>
    <symbol id="dashboard" viewBox="0 0 24 24">
      <path d="M12 4C6.486 4 2 8.486 2 14c0 1.55.354 3.045 1.051 4.445.17.34.516.555.895.555h16.107c.379 0 .726-.215.896-.555C21.646 17.045 22 15.55 22 14c0-5.514-4.486-10-10-10zm5.022 5.022L13.06 15.06c-.464.708-1.414.905-2.121.44-.708-.464-.905-1.413-.44-2.121.117-.179.272-.329.44-.44l6.038-3.962a.0335.0335 0 0 1 .045.01c.007.011.006.025 0 .035z"/>
    </symbol>
  </defs>
</svg>
