<svg aria-hidden="true" xmlns="http://www.w3.org/2000/svg">
  <defs>
    <symbol id="reports" viewBox="0 0 24 24">
      <path d="M11 7h2v10h-2V7zm4 4h2v6h-2v-6zm-8 2h2v4H7v-4zm8-9H5v16h14V8h-4V4zM3 2.992C3 2.444 3.447 2 3.999 2H16l5 5v14c0 .55-.444.996-.993 1H3.993c-.546-.004-.988-.446-.993-.992V2.992z"/>
    </symbol>
    <symbol id="home" viewBox="0 0 24 24">
      <path d="M19 21H5c-.552 0-1-.448-1-1v-9H1l10.327-9.388c.177-.161.413-.26.673-.26s.496.099.674.261l-.001-.001L23 11h-3v9c0 .552-.448 1-1 1zm-6-2h5V9.157l-6-5.454-6 5.454V19h5v-6h2v6z"/>
    </symbol>
    <symbol id="settings" viewBox="0 0 24 24">
      <path d="M2.213 14.06c-.137-.619-.216-1.33-.216-2.06s.079-1.441.228-2.126l-.012.066c1.11.13 2.08-.237 2.396-1.001.317-.765-.108-1.71-.986-2.403.769-1.171 1.742-2.144 2.876-2.89l.037-.023c.692.877 1.638 1.303 2.403.986s1.132-1.286 1.001-2.396c.619-.137 1.33-.216 2.06-.216s1.441.079 2.126.228l-.066-.012c-.13 1.11.237 2.08 1.001 2.396.765.317 1.71-.108 2.403-.986 1.171.769 2.143 1.742 2.89 2.876l.023.037c-.877.692-1.303 1.638-.986 2.403s1.286 1.132 2.396 1.001c.137.619.216 1.33.216 2.06s-.079 1.441-.228 2.126l.012-.066c-1.11-.13-2.08.237-2.396 1.001-.317.765.108 1.71.986 2.403-.77 1.171-1.742 2.143-2.876 2.89l-.037.023c-.692-.877-1.638-1.303-2.403-.986s-1.132 1.286-1.001 2.396c-.619.137-1.33.216-2.06.216s-1.441-.079-2.126-.228l.066.012c.13-1.11-.237-2.08-1.001-2.396-.765-.317-1.71.108-2.403.986-1.171-.77-2.144-1.742-2.89-2.876l-.023-.037c.877-.692 1.303-1.638.986-2.403s-1.286-1.132-2.396-1.001zM4 12.21c1.1.305 2.007 1.002 2.457 2.086.449 1.085.3 2.22-.262 3.212.096.102.195.201.297.297.993-.562 2.127-.71 3.212-.262 1.084.45 1.781 1.357 2.086 2.457.14.004.28.004.42 0 .305-1.1 1.002-2.007 2.086-2.457 1.085-.449 2.22-.3 3.212.262.102-.096.201-.195.297-.297-.562-.993-.71-2.127-.262-3.212.45-1.084 1.357-1.781 2.457-2.086.004-.14.004-.28 0-.42-1.1-.305-2.007-1.002-2.457-2.086-.449-1.085-.3-2.22.262-3.212a7.4096 7.4096 0 0 0-.294-.294l-.003-.003c-.993.562-2.127.71-3.212.262C13.212 6.007 12.515 5.1 12.21 4c-.063-.002-.136-.003-.21-.003s-.147.001-.221.003h.011c-.305 1.1-1.002 2.007-2.086 2.457-1.085.449-2.22.3-3.212-.262a6.932 6.932 0 0 0-.297.297c.562.993.71 2.127.262 3.212C6.007 10.788 5.1 11.485 4 11.79c-.004.14-.004.28 0 .42zM12 15c-1.657 0-3-1.343-3-3s1.343-3 3-3 3 1.343 3 3-1.343 3-3 3zm0-2c.552 0 1-.448 1-1s-.448-1-1-1-1 .448-1 1 .448 1 1 1z"/>
    </symbol>
    <symbol id="bell" viewBox="0 0 24 24">
      <path d="M19 13.586V10c0-3.217-2.185-5.927-5.145-6.742C13.562 2.52 12.846 2 12 2s-1.562.52-1.855 1.258C7.185 4.074 5 6.783 5 10v3.586l-1.707 1.707A.9956.9956 0 0 0 3 16v2c0 .553.447 1 1 1h16c.553 0 1-.447 1-1v-2c0-.266-.105-.52-.293-.707L19 13.586zM19 17H5v-.586l1.707-1.707A.9956.9956 0 0 0 7 14v-4c0-2.757 2.243-5 5-5s5 2.243 5 5v4c0 .266.105.52.293.707L19 16.414V17zm-7 5c1.311 0 2.407-.834 2.818-2H9.182c.411 1.166 1.507 2 2.818 2z"/>
    </symbol>
    <symbol id="menu" viewBox="0 0 24 24">
      <path d="M4 6h16v2H4zm4 5h12v2H8zm5 5h7v2h-7z"/>
    </symbol>
    <symbol id="search" viewBox="0 0 24 24">
      <path d="M10 18c1.846 0 3.543-.635 4.897-1.688l4.396 4.396 1.414-1.414-4.396-4.396C17.365 13.543 18 11.846 18 10c0-4.411-3.589-8-8-8s-8 3.589-8 8 3.589 8 8 8zm0-14c3.309 0 6 2.691 6 6s-2.691 6-6 6-6-2.691-6-6 2.691-6 6-6z"/>
    </symbol>
    <symbol id="shield" viewBox="0 0 24 24">
      <path d="M20.995 6.903a.9975.9975 0 0 0-.547-.797l-7.973-4c-.281-.143-.613-.142-.895-.002l-8.027 4c-.297.15-.502.437-.544.767-.013.097-1.145 9.741 8.541 15.008.148.081.313.121.477.121.17 0 .34-.043.492-.13 9.307-5.259 8.514-14.573 8.476-14.967zm-8.977 12.944c-6.86-4.01-7.14-10.352-7.063-12.205l7.071-3.523 6.998 3.511c.005 1.87-.481 8.243-7.006 12.217z"/>
    </symbol>
    <symbol id="arrow-down" viewBox="0 0 24 24">
      <path d="M18.293 11.293L13 16.586V5c0-.552-.448-1-1-1s-1 .448-1 1v11.586l-5.293-5.293c-.391-.391-1.024-.391-1.414 0s-.391 1.024 0 1.414l7 7A.9976.9976 0 0 0 12 20a.995.995 0 0 0 .707-.293l7-7c.391-.391.391-1.024 0-1.414s-1.024-.391-1.414 0z"/>
    </symbol>
    <symbol id="arrow-left" viewBox="0 0 24 24">
      <path d="M12.707 18.293L7.414 13H19c.552 0 1-.448 1-1s-.448-1-1-1H7.414l5.293-5.293c.391-.391.391-1.024 0-1.414s-1.024-.391-1.414 0l-7 7A.9976.9976 0 0 0 4 12c0 .256.098.512.293.707l7 7c.391.391 1.024.391 1.414 0s.391-1.024 0-1.414z"/>
    </symbol>
    <symbol id="arrow-right" viewBox="0 0 24 24">
      <path d="M11.293 5.707L16.586 11H5c-.552 0-1 .448-1 1s.448 1 1 1h11.586l-5.293 5.293c-.391.391-.391 1.024 0 1.414s1.024.391 1.414 0l7-7c.092-.092.166-.202.217-.324.101-.245.101-.521 0-.766a.9976.9976 0 0 0-.217-.324l-7-7c-.391-.391-1.024-.391-1.414 0s-.391 1.024 0 1.414z"/>
    </symbol>
    <symbol id="arrow-up" viewBox="0 0 24 24">
      <path d="M5.707 12.707L11 7.414V19c0 .552.448 1 1 1s1-.448 1-1V7.414l5.293 5.293c.391.391 1.024.391 1.414 0s.391-1.024 0-1.414l-7-7A.9976.9976 0 0 0 12 4c-.256 0-.512.098-.707.293l-7 7c-.391.391-.391 1.024 0 1.414s1.024.391 1.414 0z"/>
    </symbol>
  </defs>
</svg>
