<svg width="120" height="30" viewBox="0 0 120 30" fill="none" xmlns="http://www.w3.org/2000/svg">
<path d="M26.48 9.2357C25.9711 7.98895 25.2975 6.82706 24.48 5.78571C23.2714 4.20036 21.7632 2.9072 20.0546 1.99136C18.346 1.07551 16.4758 0.557744 14.567 0.472129C12.6582 0.386513 10.7541 0.734989 8.98 1.49463C7.20594 2.25426 5.60214 3.40783 4.27417 4.87942C2.94619 6.351 1.92414 8.10723 1.27529 10.0325C0.626436 11.9578 0.365493 14.0085 0.509634 16.0496C0.653775 18.0907 1.19973 20.076 2.11157 21.8747C3.02341 23.6735 4.28046 25.245 5.79998 26.4857C6.77498 27.2977 7.85233 27.9578 8.99998 28.4464C10.609 29.1529 12.3311 29.5168 14.07 29.5178C17.6594 29.5093 21.0992 27.9764 23.6354 25.255C26.1717 22.5336 27.5973 18.8458 27.6 15C27.6026 13.0163 27.2213 11.0535 26.48 9.2357ZM14.06 3.41785C15.6215 3.41767 17.1642 3.78335 18.58 4.48927C18.2347 4.6491 17.8718 4.76073 17.5 4.82142C16.2766 5.01116 15.1432 5.61972 14.2691 6.55625C13.3951 7.49278 12.8271 8.70706 12.65 10.0178C12.5722 10.753 12.2602 11.4369 11.7665 11.9541C11.2728 12.4714 10.6277 12.7903 9.93998 12.8571C8.71657 13.0469 7.58324 13.6554 6.70915 14.592C5.83505 15.5285 5.26707 16.7428 5.08998 18.0536C5.03002 18.7526 4.75167 19.4094 4.29998 19.9178C3.52063 18.1535 3.17053 16.2066 3.28225 14.2583C3.39397 12.31 3.96388 10.4236 4.93895 8.77472C5.91401 7.12585 7.26255 5.76805 8.85905 4.82768C10.4555 3.88732 12.2481 3.39496 14.07 3.39642L14.06 3.41785ZM5.78998 22.5C5.90998 22.3821 6.02998 22.275 6.14998 22.1464C7.03963 21.2223 7.61069 20.0023 7.76998 18.6857C7.83456 17.9456 8.14298 17.2543 8.63998 16.7357C9.11822 16.2023 9.76195 15.8746 10.45 15.8143C11.6734 15.6245 12.8067 15.016 13.6808 14.0794C14.5549 13.1429 15.1229 11.9286 15.3 10.6178C15.3432 9.84375 15.6533 9.11446 16.17 8.57142C16.66 8.0484 17.3099 7.7326 18 7.68213C19.1239 7.51645 20.1721 6.98112 21 6.14999C21.9426 6.98793 22.7413 7.99595 23.36 9.12856C23.322 9.18358 23.2784 9.23389 23.23 9.27856C22.7526 9.81663 22.1098 10.1515 21.42 10.2214C20.1953 10.4079 19.0603 11.0153 18.1856 11.9525C17.311 12.8896 16.744 14.1057 16.57 15.4178C16.4995 16.1555 16.1932 16.8443 15.7029 17.3676C15.2127 17.8909 14.5687 18.2165 13.88 18.2893C12.653 18.4776 11.5154 19.0849 10.6363 20.0211C9.75713 20.9572 9.18328 22.1723 8.99998 23.4857C8.94616 24.0093 8.77832 24.5121 8.50998 24.9536C7.48397 24.3009 6.56506 23.472 5.78998 22.5ZM14.06 26.6357C13.0452 26.6369 12.0354 26.4854 11.06 26.1857C11.3936 25.5193 11.6106 24.793 11.7 24.0428C11.7701 23.3069 12.0749 22.6194 12.5632 22.0963C13.0514 21.5732 13.6931 21.2465 14.38 21.1714C15.6052 20.9838 16.7408 20.3762 17.6168 19.4395C18.4929 18.5028 19.0624 17.2873 19.24 15.975C19.3101 15.239 19.6149 14.5515 20.1032 14.0284C20.5914 13.5053 21.2331 13.1787 21.92 13.1036C22.842 12.9751 23.7208 12.6073 24.48 12.0321C24.9015 13.7442 24.9515 15.5369 24.626 17.2729C24.3004 19.0088 23.6081 20.6418 22.6021 22.0465C21.5961 23.4513 20.3031 24.5904 18.8224 25.3767C17.3417 26.1629 15.7125 26.5753 14.06 26.5821V26.6357Z" fill="url(#paint0_linear)"/>
<path d="M36.648 19.701C36.477 19.701 36.344 19.549 36.344 19.378C36.344 19.321 36.325 19.264 36.325 19.207C36.325 19.15 36.344 19.093 36.344 19.036V8.719C36.344 8.092 35.831 7.579 35.185 7.579C34.558 7.579 34.045 8.092 34.045 8.719C34.045 10.087 34.045 11.455 34.045 12.823V18.504C34.045 19.397 34.007 20.233 34.577 20.974C35.071 21.601 35.85 22 36.648 22C37.294 22 37.807 21.487 37.807 20.841C37.807 20.214 37.294 19.701 36.648 19.701ZM43.6271 21.962C41.0051 21.962 38.8581 19.834 38.8581 17.193C38.8581 14.571 41.0051 12.424 43.6271 12.424C46.2491 12.424 48.3961 14.571 48.4151 17.212C48.3961 19.834 46.2491 21.962 43.6271 21.962ZM43.6271 14.761C42.2781 14.761 41.1951 15.844 41.1951 17.193C41.1951 18.542 42.2781 19.625 43.6271 19.625C44.9761 19.625 46.0591 18.542 46.0591 17.193C46.0591 15.844 44.9761 14.761 43.6271 14.761ZM58.0001 12.367C57.4871 12.367 57.0691 12.709 56.8981 13.165C56.1761 12.709 55.3211 12.462 54.4281 12.462C51.8061 12.462 49.6591 14.59 49.6591 17.212C49.6591 19.834 51.8061 21.962 54.4281 21.962C55.3021 21.962 56.1381 21.715 56.8411 21.297V22.133C56.8411 23.558 55.7011 24.698 54.2761 24.698C53.5351 24.698 52.8131 24.394 52.3381 23.824C51.9201 23.33 51.1791 23.273 50.7041 23.71C50.2101 24.109 50.1721 24.85 50.5711 25.344C51.5021 26.427 52.8511 27.035 54.2761 27.035C56.9741 27.035 59.1591 24.831 59.1591 22.133V13.526C59.1591 12.899 58.6461 12.367 58.0001 12.367ZM54.4281 19.644C53.0791 19.644 51.9961 18.542 51.9961 17.212C51.9961 15.863 53.0791 14.78 54.4281 14.78C55.7581 14.78 56.8411 15.863 56.8411 17.212C56.8411 18.542 55.7581 19.644 54.4281 19.644ZM65.5773 21.962C62.9553 21.962 60.8083 19.834 60.8083 17.193C60.8083 14.571 62.9553 12.424 65.5773 12.424C68.1993 12.424 70.3463 14.571 70.3653 17.212C70.3463 19.834 68.1993 21.962 65.5773 21.962ZM65.5773 14.761C64.2283 14.761 63.1453 15.844 63.1453 17.193C63.1453 18.542 64.2283 19.625 65.5773 19.625C66.9263 19.625 68.0093 18.542 68.0093 17.193C68.0093 15.844 66.9263 14.761 65.5773 14.761ZM73.0913 10.847C72.4263 10.847 71.8943 10.315 71.8943 9.688V9.593C71.8943 8.928 72.4263 8.415 73.0913 8.415C73.7183 8.415 74.2503 8.928 74.2503 9.593V9.688C74.2503 10.315 73.7183 10.847 73.0913 10.847ZM73.0913 22C72.4263 22 71.8943 21.468 71.8943 20.822V13.488C71.8943 12.842 72.4263 12.329 73.0913 12.329C73.7183 12.329 74.2503 12.842 74.2503 13.488V20.822C74.2503 21.468 73.7183 22 73.0913 22ZM81.0264 12.462C80.0194 12.462 79.0694 12.766 78.3094 13.298C78.1574 12.842 77.7204 12.5 77.2074 12.5C76.5614 12.5 76.0484 13.013 76.0484 13.64V25.724C76.0484 26.37 76.5614 26.883 77.2074 26.883C77.8344 26.883 78.3474 26.37 78.3474 25.724V21.278C79.1264 21.772 80.0384 22.076 81.0264 22.076C83.6674 22.076 85.8334 19.929 85.8334 17.269C85.8334 14.609 83.6674 12.462 81.0264 12.462ZM81.0264 19.777C79.6394 19.777 78.5184 18.656 78.5184 17.269C78.5184 15.882 79.6394 14.761 81.0264 14.761C82.3944 14.761 83.5344 15.882 83.5344 17.269C83.5344 18.656 82.3944 19.777 81.0264 19.777ZM90.4686 22.038C89.2526 22.038 88.0366 21.544 87.4096 20.955C86.9536 20.537 86.9156 19.815 87.3526 19.359C87.7706 18.884 88.4926 18.865 88.9486 19.283C89.2906 19.606 90.5636 20.043 91.2856 19.568C91.4756 19.454 91.5896 19.245 91.5896 19.036C91.5896 18.77 91.3616 18.58 91.1716 18.504C91.0006 18.409 90.6966 18.409 90.3546 18.409C89.8986 18.409 89.3856 18.39 88.8536 18.2C87.8656 17.877 87.0676 16.851 86.9916 15.863C86.8966 14.666 87.4096 13.925 87.8466 13.507C88.7966 12.633 90.1836 12.5 91.1906 12.671C91.9506 12.804 92.5206 13.07 92.9956 13.507C93.4516 13.925 93.4896 14.647 93.0716 15.103C92.8246 15.369 92.4636 15.502 92.1026 15.464C91.9316 15.445 91.7606 15.388 91.6086 15.293C91.3426 15.103 91.1526 14.97 90.8106 14.913C90.2406 14.818 89.1766 14.856 89.2526 15.673C89.2716 15.768 89.4426 16.015 89.5946 16.072C89.7846 16.129 90.0696 16.129 90.3736 16.129C90.8676 16.148 91.4946 16.148 92.1216 16.433C93.1666 16.908 93.8506 17.934 93.8506 19.036C93.8506 20.005 93.3566 20.917 92.5396 21.468C91.8936 21.886 91.1906 22.038 90.4686 22.038ZM99.679 22.057C97.209 22.057 95.176 19.91 95.176 17.288V13.659C95.176 13.032 95.651 12.519 96.24 12.519C96.848 12.519 97.437 13.032 97.437 13.659V17.288C97.437 18.656 98.577 19.758 99.679 19.758C100.971 19.758 101.94 18.656 101.94 17.288V13.811C101.94 13.165 102.605 12.671 103.118 12.671C103.707 12.671 104.201 13.165 104.201 13.811V17.288C104.201 19.91 102.168 22.057 99.679 22.057ZM118.445 16.129C118.445 14.153 116.754 12.538 114.721 12.538C113.676 12.538 112.764 12.918 112.099 13.564C111.396 12.918 110.484 12.538 109.477 12.538C108.85 12.538 108.261 12.69 107.729 12.956C107.558 12.69 107.216 12.5 106.855 12.5C106.247 12.5 105.715 13.032 105.715 13.659V20.917C105.715 21.525 106.247 22.038 106.855 22.038C107.501 22.038 107.995 21.525 107.995 20.917V16.129C107.995 15.388 108.66 14.818 109.477 14.818C110.294 14.818 110.959 15.388 110.959 16.129C110.959 16.148 110.959 16.167 110.959 16.186V16.262V20.86C110.959 21.506 111.453 22 112.099 22C112.707 22 113.22 21.506 113.22 20.86V16.262C113.22 16.243 113.22 16.224 113.22 16.186V16.129C113.22 15.388 113.885 14.818 114.721 14.818C115.5 14.818 116.165 15.388 116.165 16.129C116.165 16.148 116.165 16.167 116.165 16.186V16.262V20.86C116.165 21.506 116.697 22 117.324 22C117.951 22 118.445 21.506 118.445 20.86V16.262C118.445 16.243 118.445 16.224 118.445 16.186V16.129Z" fill="#444444"/>
<defs>
<linearGradient id="paint0_linear" x1="2.5" y1="1" x2="28" y2="28" gradientUnits="userSpaceOnUse">
<stop stop-color="#785BF4"/>
<stop offset="1" stop-color="#3C1FB8"/>
</linearGradient>
</defs>
</svg>
