<svg width="162" height="41" viewBox="0 0 162 41" fill="none" xmlns="http://www.w3.org/2000/svg">
<path d="M37.1878 15.2233C37.6313 15.2233 37.7791 15.3832 37.7791 15.8137V25.5553H42.7928C43.224 25.5553 43.3841 25.7152 43.3841 26.1457V27.0067C43.3841 27.4372 43.224 27.5971 42.7928 27.5971H36.19C35.7589 27.5971 35.5864 27.4372 35.5864 27.0067V15.8137C35.5864 15.3832 35.7589 15.2233 36.19 15.2233H37.1878Z" fill="white"/>
<path d="M47.7572 19.516C47.7572 16.6747 49.5557 14.965 52.6846 14.965C55.8136 14.965 57.6121 16.6747 57.6121 19.516V23.3044C57.6121 26.1457 55.8012 27.8554 52.6846 27.8554C49.568 27.8554 47.7572 26.1457 47.7572 23.3044V19.516ZM55.5426 19.516C55.5426 17.917 54.5447 17.056 52.7462 17.056C50.9477 17.056 49.9622 17.9293 49.9622 19.516V23.329C49.9622 24.9403 50.9477 25.789 52.7462 25.789C54.5447 25.789 55.5426 24.9034 55.5426 23.329V19.516Z" fill="white"/>
<path d="M72.2835 20.8198C72.7639 20.8198 72.8748 20.9797 72.8748 21.4102V23.7472C72.8878 24.2976 72.7773 24.8441 72.5514 25.3463C72.3254 25.8486 71.9898 26.2941 71.569 26.65C70.524 27.4808 69.2064 27.8931 67.8734 27.8062C64.6829 27.8062 62.946 26.0965 62.946 23.2552V19.4422C62.946 16.6378 64.7445 14.9158 67.8734 14.9158C70.3371 14.9158 71.9386 15.8875 72.6161 17.8309C72.654 17.9039 72.6743 17.9847 72.6754 18.067C72.6766 18.1492 72.6585 18.2306 72.6226 18.3046C72.5867 18.3786 72.5341 18.4433 72.4688 18.4934C72.4035 18.5436 72.3274 18.5778 72.2465 18.5935L71.2857 18.9256C70.8668 19.0732 70.6944 18.9871 70.5466 18.5566C70.3425 18.0312 69.9689 17.5887 69.4847 17.2991C69.0006 17.0095 68.4336 16.8894 67.8734 16.9576C66.0626 16.9576 65.0771 17.8309 65.0771 19.4176V23.329C65.0771 24.9403 66.0749 25.789 67.8734 25.789C69.6719 25.789 70.7806 24.9649 70.7806 23.7595V22.8493H68.1075C67.664 22.8493 67.5039 22.6771 67.5039 22.2466V21.4102C67.5039 20.9797 67.664 20.8198 68.1075 20.8198H72.2835Z" fill="white"/>
<path d="M77.9624 19.516C77.9624 16.6747 79.7609 14.965 82.8898 14.965C86.0188 14.965 87.8173 16.6747 87.8173 19.516V23.3044C87.8173 26.1457 86.0064 27.8554 82.8898 27.8554C79.7732 27.8554 77.9624 26.1457 77.9624 23.3044V19.516ZM85.7354 19.516C85.7354 17.917 84.7376 17.056 82.9514 17.056C81.1652 17.056 80.1551 17.9293 80.1551 19.516V23.329C80.1551 24.9403 81.1529 25.789 82.9514 25.789C84.7499 25.789 85.7354 24.9034 85.7354 23.329V19.516Z" fill="white"/>
<path d="M93.6193 15.58C93.6193 15.3094 93.7056 15.2233 93.9766 15.2233H94.5432C94.8142 15.2233 94.8758 15.3094 94.8758 15.58V27.2404C94.8758 27.511 94.8758 27.5971 94.5432 27.5971H93.9766C93.7056 27.5971 93.6193 27.511 93.6193 27.2404V15.58Z" fill="white"/>
<path d="M106.098 15.2233C107.124 15.2233 108.108 15.6302 108.833 16.3545C109.559 17.0788 109.966 18.0612 109.966 19.0855C109.966 20.1098 109.559 21.0922 108.833 21.8165C108.108 22.5408 107.124 22.9477 106.098 22.9477H102.402V27.2404C102.402 27.511 102.341 27.5971 102.082 27.5971H101.503C101.245 27.5971 101.146 27.511 101.146 27.2404V15.58C101.146 15.3094 101.245 15.2233 101.503 15.2233H106.098ZM105.987 21.73C106.34 21.73 106.689 21.6607 107.015 21.5259C107.341 21.3912 107.637 21.1937 107.886 20.9447C108.135 20.6957 108.333 20.4001 108.468 20.0748C108.603 19.7494 108.673 19.4008 108.673 19.0486C108.673 18.6965 108.603 18.3478 108.468 18.0225C108.333 17.6972 108.135 17.4016 107.886 17.1526C107.637 16.9036 107.341 16.7061 107.015 16.5713C106.689 16.4366 106.34 16.3672 105.987 16.3672H102.292V21.73H105.987Z" fill="white"/>
<path d="M119.587 14.9773C120.538 14.8725 121.498 15.0768 122.323 15.5599C123.149 16.0429 123.796 16.779 124.169 17.6587C124.268 17.8555 124.169 18.0154 123.972 18.1138L123.43 18.3598C123.209 18.4459 123.122 18.4336 122.987 18.1999C122.708 17.547 122.228 16.9997 121.617 16.637C121.006 16.2744 120.295 16.1153 119.587 16.1827C117.505 16.1827 116.372 17.0068 116.372 18.4828C116.36 18.9339 116.511 19.3741 116.799 19.7223C117.086 20.0704 117.49 20.3029 117.936 20.377C118.599 20.5928 119.286 20.725 119.981 20.7706C120.823 20.8154 121.653 20.9854 122.445 21.2749C123.052 21.4666 123.574 21.861 123.924 22.3919C124.274 22.9227 124.43 23.5577 124.367 24.19C124.367 26.4901 122.691 27.88 119.612 27.88C118.601 27.9954 117.582 27.7617 116.724 27.2178C115.865 26.6739 115.219 25.8528 114.894 24.8911C114.872 24.8473 114.86 24.7992 114.859 24.7503C114.858 24.7013 114.868 24.6528 114.888 24.6082C114.908 24.5635 114.938 24.5238 114.975 24.4919C115.012 24.46 115.056 24.4367 115.103 24.4237L115.645 24.2269C115.688 24.2095 115.734 24.2011 115.78 24.2024C115.826 24.2036 115.871 24.2144 115.913 24.234C115.954 24.2537 115.992 24.2818 116.022 24.3166C116.052 24.3513 116.075 24.392 116.088 24.436C116.364 25.1309 116.854 25.72 117.487 26.1181C118.121 26.5162 118.865 26.7025 119.612 26.65C121.94 26.65 123.085 25.8382 123.085 24.19C123.107 23.7567 122.974 23.3299 122.71 22.9853C122.446 22.6407 122.069 22.4007 121.644 22.3081C121.007 22.1183 120.349 22.0027 119.685 21.9637L118.355 21.7915C117.939 21.7033 117.527 21.5924 117.123 21.4594C116.724 21.339 116.352 21.1427 116.027 20.8813C115.7 20.5858 115.442 20.2222 115.272 19.8162C115.102 19.4102 115.023 18.9718 115.041 18.532C115.128 16.3795 116.741 14.9773 119.587 14.9773Z" fill="white"/>
<path d="M131.006 23.3905C131.059 24.2604 131.441 25.0774 132.077 25.6748C132.712 26.2723 133.552 26.6049 134.425 26.6049C135.297 26.6049 136.137 26.2723 136.772 25.6748C137.408 25.0774 137.791 24.2604 137.843 23.3905V15.58C137.843 15.3094 137.929 15.2233 138.2 15.2233H138.767C139.038 15.2233 139.124 15.3094 139.124 15.58V23.3782C139.124 26.1703 137.474 27.8554 134.431 27.8554C131.388 27.8554 129.737 26.1703 129.737 23.3782V15.58C129.737 15.3094 129.824 15.2233 130.082 15.2233H130.661C130.92 15.2233 131.006 15.3094 131.006 15.58V23.3905Z" fill="white"/>
<path d="M156.124 15.2233C156.395 15.2233 156.481 15.3094 156.481 15.58V27.2404C156.481 27.511 156.395 27.5971 156.124 27.5971H155.606C155.348 27.5971 155.262 27.511 155.262 27.2404V20.1433C155.261 19.1107 155.331 18.0792 155.471 17.056H155.397C155.012 17.9917 154.564 18.8999 154.054 19.7743L151.406 24.436C151.373 24.5169 151.317 24.586 151.245 24.6344C151.172 24.6827 151.087 24.7079 150.999 24.7066H150.654C150.566 24.707 150.479 24.6817 150.405 24.6336C150.33 24.5856 150.271 24.5169 150.236 24.436L147.55 19.7251C147.073 18.8632 146.661 17.9669 146.318 17.0437H146.244C146.371 18.0763 146.436 19.1154 146.441 20.1556V27.2404C146.441 27.511 146.355 27.5971 146.084 27.5971H145.604C145.333 27.5971 145.247 27.511 145.247 27.2404V15.58C145.247 15.3094 145.333 15.2233 145.604 15.2233H146.047C146.149 15.2139 146.25 15.236 146.339 15.2867C146.427 15.3373 146.497 15.414 146.54 15.5062L150.851 23.1568L155.138 15.58C155.274 15.3217 155.348 15.2848 155.619 15.2848L156.124 15.2233Z" fill="white"/>
<path d="M15.2731 24.8665V33.7594C15.2731 34.1003 15.1374 34.4272 14.896 34.6683C14.6546 34.9093 14.3272 35.0448 13.9858 35.0448C13.6444 35.0448 13.3169 34.9093 13.0755 34.6683C12.8341 34.4272 12.6985 34.1003 12.6985 33.7594V24.8788C13.0569 25.1401 13.4867 25.286 13.9303 25.297C14.414 25.3108 14.8878 25.1589 15.2731 24.8665ZM26.2366 22.2958C25.9099 22.2958 25.5966 22.4254 25.3655 22.6561C25.1345 22.8867 25.0047 23.1996 25.0047 23.5258V25.0756C25.0047 25.4165 25.1404 25.7434 25.3818 25.9845C25.6232 26.2255 25.9506 26.361 26.292 26.361C26.6334 26.361 26.9609 26.2255 27.2023 25.9845C27.4437 25.7434 27.5793 25.4165 27.5793 25.0756V23.5873C27.5889 23.4109 27.5603 23.2346 27.4956 23.0702C27.4308 22.9058 27.3313 22.7573 27.2039 22.6348C27.0765 22.5123 26.9242 22.4186 26.7573 22.3601C26.5903 22.3016 26.4128 22.2796 26.2366 22.2958ZM9.90215 28.2367C9.45888 28.2234 9.02979 28.0778 8.67029 27.8185V36.736C8.67029 37.0785 8.80656 37.407 9.04913 37.6492C9.2917 37.8914 9.6207 38.0275 9.96374 38.0275C10.3068 38.0275 10.6358 37.8914 10.8784 37.6492C11.1209 37.407 11.2572 37.0785 11.2572 36.736V27.88C10.8549 28.1396 10.3803 28.2646 9.90215 28.2367ZM22.2207 19.6267C22.0539 19.6184 21.887 19.644 21.7304 19.7021C21.5738 19.7601 21.4306 19.8494 21.3096 19.9645C21.1886 20.0795 21.0923 20.218 21.0266 20.3714C20.9609 20.5247 20.9271 20.6899 20.9273 20.8567V27.7078C20.9273 28.0503 21.0636 28.3788 21.3061 28.621C21.5487 28.8632 21.8777 28.9993 22.2207 28.9993C22.5638 28.9993 22.8928 28.8632 23.1354 28.621C23.3779 28.3788 23.5142 28.0503 23.5142 27.7078V20.9428C23.524 20.7653 23.4952 20.5878 23.4297 20.4225C23.3642 20.2571 23.2636 20.108 23.1348 19.9852C23.006 19.8625 22.8521 19.7691 22.6836 19.7114C22.5152 19.6538 22.3363 19.6333 22.1591 19.6513L22.2207 19.6267ZM18.131 22.2589C17.667 22.2557 17.2153 22.1097 16.8375 21.8407V30.7828C16.8375 31.1253 16.9738 31.4538 17.2164 31.696C17.4589 31.9382 17.7879 32.0743 18.131 32.0743C18.474 32.0743 18.803 31.9382 19.0456 31.696C19.2881 31.4538 19.4244 31.1253 19.4244 30.7828V21.853C19.0336 22.1437 18.5565 22.2952 18.0694 22.2835L18.131 22.2589ZM7.10583 29.11V4.1287C7.10258 3.8242 6.97915 3.53327 6.76235 3.31909C6.54554 3.10491 6.25286 2.98479 5.94788 2.9848H5.67687C5.37189 2.98479 5.07921 3.10491 4.8624 3.31909C4.6456 3.53327 4.52217 3.8242 4.51892 4.1287V29.11C4.51892 29.4167 4.64092 29.7107 4.85808 29.9276C5.07523 30.1444 5.36976 30.2662 5.67687 30.2662H5.94788C6.25499 30.2662 6.54952 30.1444 6.76667 29.9276C6.98383 29.7107 7.10583 29.4167 7.10583 29.11ZM10.0377 27.2896H9.76664C9.45954 27.2896 9.16501 27.1678 8.94785 26.951C8.73069 26.7341 8.6087 26.4401 8.6087 26.1334V7.10531C8.61194 6.8008 8.73537 6.50986 8.95218 6.29569C9.16898 6.08151 9.46166 5.96139 9.76664 5.96141H10.0377C10.3426 5.96139 10.6353 6.08151 10.8521 6.29569C11.0689 6.50986 11.1924 6.8008 11.1956 7.10531V26.158C11.1956 26.4646 11.0736 26.7587 10.8564 26.9756C10.6393 27.1924 10.3448 27.3142 10.0377 27.3142V27.2896ZM14.1151 24.3622H13.8318C13.5279 24.3622 13.2365 24.2417 13.0217 24.0272C12.8069 23.8126 12.6862 23.5217 12.6862 23.2183V10.0573C12.6845 9.90605 12.713 9.75598 12.7698 9.61577C12.8266 9.47557 12.9108 9.34801 13.0173 9.24048C13.1239 9.13296 13.2507 9.04759 13.3905 8.98934C13.5303 8.93109 13.6803 8.9011 13.8318 8.9011H14.1151C14.4201 8.90434 14.7114 9.02759 14.926 9.24407C15.1405 9.46055 15.2608 9.75278 15.2607 10.0573V23.2183C15.2607 23.5217 15.14 23.8126 14.9252 24.0272C14.7103 24.2417 14.4189 24.3622 14.1151 24.3622ZM18.1926 21.3487H17.9339C17.6289 21.3487 17.3362 21.2286 17.1194 21.0144C16.9026 20.8002 16.7792 20.5093 16.7759 20.2048V13.12C16.7658 12.9621 16.7883 12.8038 16.8419 12.6549C16.8956 12.5059 16.9792 12.3696 17.0878 12.2543C17.1963 12.139 17.3275 12.0472 17.473 11.9845C17.6185 11.9218 17.7754 11.8897 17.9339 11.89H18.2049C18.512 11.89 18.8065 12.0118 19.0237 12.2286C19.2408 12.4455 19.3628 12.7396 19.3628 13.0462V20.1802C19.3645 20.3331 19.3357 20.4847 19.2782 20.6264C19.2208 20.7681 19.1357 20.8971 19.0281 21.0057C18.9204 21.1144 18.7922 21.2007 18.6509 21.2595C18.5096 21.3184 18.358 21.3487 18.2049 21.3487H18.1926ZM22.2823 18.7042H22.0113C21.7042 18.7042 21.4097 18.5824 21.1925 18.3656C20.9754 18.1487 20.8534 17.8546 20.8534 17.548V15.7153C20.8566 15.4108 20.9801 15.1199 21.1969 14.9057C21.4137 14.6915 21.7063 14.5714 22.0113 14.5714H22.2823C22.5873 14.5714 22.88 14.6915 23.0968 14.9057C23.3136 15.1199 23.437 15.4108 23.4403 15.7153V17.548C23.4403 17.8525 23.32 18.1448 23.1055 18.3612C22.891 18.5777 22.5996 18.701 22.2947 18.7042H22.2823Z" fill="url(#paint0_linear)"/>
<defs>
<linearGradient id="paint0_linear" x1="5" y1="3" x2="28" y2="38" gradientUnits="userSpaceOnUse">
<stop stop-color="#9B5DE5"/>
<stop offset="0.46612" stop-color="#9B5DE5"/>
<stop offset="1" stop-color="#00BBF9"/>
</linearGradient>
</defs>
</svg>
